<mxfile host="Electron" agent="Mozilla/5.0 (Macintosh; Intel Mac OS X 10_15_7) AppleWebKit/537.36 (KHTML, like Gecko) draw.io/26.0.9 Chrome/128.0.6613.186 Electron/32.2.5 Safari/537.36" version="26.0.9" pages="2">
  <diagram name="dark" id="fs8_ZdsPr8t2v-ktGYmV">
    <mxGraphModel dx="2213" dy="1039" grid="1" gridSize="10" guides="1" tooltips="1" connect="1" arrows="1" fold="1" page="1" pageScale="1" pageWidth="850" pageHeight="1100" background="none" math="0" shadow="0">
      <root>
        <mxCell id="0" />
        <mxCell id="1" parent="0" />
        <mxCell id="1ZEqIL1IGXKbyDCEupFX-59" value="" style="rounded=0;whiteSpace=wrap;html=1;fillColor=#000000;perimeterSpacing=5;strokeWidth=5;strokeColor=#FFFFFF;" parent="1" vertex="1">
          <mxGeometry x="-530" y="270" width="1570" height="740" as="geometry" />
        </mxCell>
        <mxCell id="1ZEqIL1IGXKbyDCEupFX-55" value="" style="rounded=0;whiteSpace=wrap;html=1;strokeColor=#FFFFFF;fillColor=#000000;perimeterSpacing=5;strokeWidth=5;" parent="1" vertex="1">
          <mxGeometry x="770" y="600" width="160" height="180" as="geometry" />
        </mxCell>
        <mxCell id="1ZEqIL1IGXKbyDCEupFX-5" value="" style="edgeStyle=orthogonalEdgeStyle;rounded=0;orthogonalLoop=1;jettySize=auto;html=1;strokeColor=#FFFFFF;strokeWidth=5;" parent="1" source="1ZEqIL1IGXKbyDCEupFX-2" target="1ZEqIL1IGXKbyDCEupFX-6" edge="1">
          <mxGeometry relative="1" as="geometry">
            <mxPoint x="930" y="350" as="targetPoint" />
          </mxGeometry>
        </mxCell>
        <mxCell id="1ZEqIL1IGXKbyDCEupFX-2" value="&lt;font style=&quot;font-size: 20px;&quot;&gt;ochami-init&lt;/font&gt;" style="rounded=1;whiteSpace=wrap;html=1;fillColor=#d5e8d4;strokeColor=#82b366;" parent="1" vertex="1">
          <mxGeometry x="870" y="440" width="160" height="80" as="geometry" />
        </mxCell>
        <mxCell id="1ZEqIL1IGXKbyDCEupFX-3" value="ochami-jenga" style="rounded=1;whiteSpace=wrap;html=1;fillColor=#d5e8d4;strokeColor=#82b366;fontSize=20;" parent="1" vertex="1">
          <mxGeometry x="-520" y="440" width="160" height="80" as="geometry" />
        </mxCell>
        <mxCell id="1ZEqIL1IGXKbyDCEupFX-6" value="&lt;font style=&quot;font-size: 20px;&quot;&gt;CoreSMD&lt;/font&gt;" style="rounded=1;whiteSpace=wrap;html=1;fillColor=#b1ddf0;strokeColor=#10739e;" parent="1" vertex="1">
          <mxGeometry x="870" y="280" width="160" height="80" as="geometry" />
        </mxCell>
        <mxCell id="1ZEqIL1IGXKbyDCEupFX-14" value="" style="edgeStyle=orthogonalEdgeStyle;rounded=0;orthogonalLoop=1;jettySize=auto;html=1;entryX=1;entryY=0.5;entryDx=0;entryDy=0;strokeColor=#FFFFFF;strokeWidth=5;" parent="1" source="1ZEqIL1IGXKbyDCEupFX-9" target="1ZEqIL1IGXKbyDCEupFX-13" edge="1">
          <mxGeometry relative="1" as="geometry" />
        </mxCell>
        <mxCell id="1ZEqIL1IGXKbyDCEupFX-15" value="" style="edgeStyle=orthogonalEdgeStyle;rounded=0;orthogonalLoop=1;jettySize=auto;html=1;strokeColor=#FFFFFF;strokeWidth=5;" parent="1" source="1ZEqIL1IGXKbyDCEupFX-9" target="1ZEqIL1IGXKbyDCEupFX-12" edge="1">
          <mxGeometry relative="1" as="geometry" />
        </mxCell>
        <mxCell id="1ZEqIL1IGXKbyDCEupFX-16" value="" style="edgeStyle=orthogonalEdgeStyle;rounded=0;orthogonalLoop=1;jettySize=auto;html=1;entryX=1;entryY=0.5;entryDx=0;entryDy=0;strokeColor=#FFFFFF;strokeWidth=5;" parent="1" source="1ZEqIL1IGXKbyDCEupFX-9" target="1ZEqIL1IGXKbyDCEupFX-11" edge="1">
          <mxGeometry relative="1" as="geometry" />
        </mxCell>
        <mxCell id="SwHw0xs3v0KvF5lwuCIV-2" style="edgeStyle=orthogonalEdgeStyle;rounded=0;orthogonalLoop=1;jettySize=auto;html=1;exitX=0.5;exitY=1;exitDx=0;exitDy=0;entryX=1;entryY=0.5;entryDx=0;entryDy=0;strokeColor=#FFFFFF;strokeWidth=5;" parent="1" source="1ZEqIL1IGXKbyDCEupFX-9" target="SwHw0xs3v0KvF5lwuCIV-1" edge="1">
          <mxGeometry relative="1" as="geometry" />
        </mxCell>
        <mxCell id="1ZEqIL1IGXKbyDCEupFX-9" value="&lt;font style=&quot;font-size: 20px;&quot;&gt;haproxy&lt;/font&gt;" style="rounded=1;whiteSpace=wrap;html=1;fillColor=#b1ddf0;strokeColor=#10739e;" parent="1" vertex="1">
          <mxGeometry x="670" y="440" width="160" height="80" as="geometry" />
        </mxCell>
        <mxCell id="1ZEqIL1IGXKbyDCEupFX-19" value="" style="edgeStyle=orthogonalEdgeStyle;rounded=0;orthogonalLoop=1;jettySize=auto;html=1;strokeColor=#FFFFFF;strokeWidth=5;" parent="1" source="1ZEqIL1IGXKbyDCEupFX-11" target="1ZEqIL1IGXKbyDCEupFX-17" edge="1">
          <mxGeometry relative="1" as="geometry" />
        </mxCell>
        <mxCell id="1ZEqIL1IGXKbyDCEupFX-11" value="opaal" style="rounded=1;whiteSpace=wrap;html=1;fillColor=#b1ddf0;strokeColor=#10739e;fontSize=20;" parent="1" vertex="1">
          <mxGeometry x="440" y="280" width="160" height="80" as="geometry" />
        </mxCell>
        <mxCell id="1ZEqIL1IGXKbyDCEupFX-32" value="" style="edgeStyle=orthogonalEdgeStyle;rounded=0;orthogonalLoop=1;jettySize=auto;html=1;entryX=1;entryY=0.5;entryDx=0;entryDy=0;strokeColor=#FFFFFF;strokeWidth=5;" parent="1" source="1ZEqIL1IGXKbyDCEupFX-12" target="1ZEqIL1IGXKbyDCEupFX-31" edge="1">
          <mxGeometry relative="1" as="geometry" />
        </mxCell>
        <mxCell id="1ZEqIL1IGXKbyDCEupFX-35" style="edgeStyle=orthogonalEdgeStyle;rounded=0;orthogonalLoop=1;jettySize=auto;html=1;entryX=1;entryY=0.5;entryDx=0;entryDy=0;strokeColor=#FFFFFF;strokeWidth=5;" parent="1" source="1ZEqIL1IGXKbyDCEupFX-12" target="1ZEqIL1IGXKbyDCEupFX-30" edge="1">
          <mxGeometry relative="1" as="geometry">
            <mxPoint x="400" y="470" as="targetPoint" />
          </mxGeometry>
        </mxCell>
        <mxCell id="1ZEqIL1IGXKbyDCEupFX-41" value="" style="edgeStyle=orthogonalEdgeStyle;rounded=0;orthogonalLoop=1;jettySize=auto;html=1;dashed=1;strokeColor=#FFFFFF;strokeWidth=5;" parent="1" source="1ZEqIL1IGXKbyDCEupFX-12" target="1ZEqIL1IGXKbyDCEupFX-11" edge="1">
          <mxGeometry relative="1" as="geometry" />
        </mxCell>
        <mxCell id="1ZEqIL1IGXKbyDCEupFX-12" value="bss" style="rounded=1;whiteSpace=wrap;html=1;fillColor=#b1ddf0;strokeColor=#10739e;fontSize=20;" parent="1" vertex="1">
          <mxGeometry x="440" y="440" width="160" height="80" as="geometry" />
        </mxCell>
        <mxCell id="1ZEqIL1IGXKbyDCEupFX-43" value="" style="edgeStyle=orthogonalEdgeStyle;rounded=0;orthogonalLoop=1;jettySize=auto;html=1;strokeColor=#FFFFFF;strokeWidth=5;" parent="1" source="1ZEqIL1IGXKbyDCEupFX-13" target="1ZEqIL1IGXKbyDCEupFX-42" edge="1">
          <mxGeometry relative="1" as="geometry" />
        </mxCell>
        <mxCell id="1ZEqIL1IGXKbyDCEupFX-13" value="acme-deploy" style="rounded=1;whiteSpace=wrap;html=1;fillColor=#d5e8d4;strokeColor=#82b366;fontSize=20;" parent="1" vertex="1">
          <mxGeometry x="440" y="920" width="160" height="80" as="geometry" />
        </mxCell>
        <mxCell id="1ZEqIL1IGXKbyDCEupFX-21" value="" style="edgeStyle=orthogonalEdgeStyle;rounded=0;orthogonalLoop=1;jettySize=auto;html=1;strokeColor=#FFFFFF;strokeWidth=5;" parent="1" source="1ZEqIL1IGXKbyDCEupFX-17" target="1ZEqIL1IGXKbyDCEupFX-20" edge="1">
          <mxGeometry relative="1" as="geometry" />
        </mxCell>
        <mxCell id="1ZEqIL1IGXKbyDCEupFX-17" value="opaal-idp" style="rounded=1;whiteSpace=wrap;html=1;fillColor=#b1ddf0;strokeColor=#10739e;fontSize=20;" parent="1" vertex="1">
          <mxGeometry x="240" y="280" width="160" height="80" as="geometry" />
        </mxCell>
        <mxCell id="1ZEqIL1IGXKbyDCEupFX-23" value="" style="edgeStyle=orthogonalEdgeStyle;rounded=0;orthogonalLoop=1;jettySize=auto;html=1;strokeColor=#FFFFFF;strokeWidth=5;" parent="1" source="1ZEqIL1IGXKbyDCEupFX-20" target="1ZEqIL1IGXKbyDCEupFX-22" edge="1">
          <mxGeometry relative="1" as="geometry" />
        </mxCell>
        <mxCell id="1ZEqIL1IGXKbyDCEupFX-20" value="hydra" style="rounded=1;whiteSpace=wrap;html=1;fillColor=#b1ddf0;strokeColor=#10739e;fontSize=20;" parent="1" vertex="1">
          <mxGeometry x="40" y="280" width="160" height="80" as="geometry" />
        </mxCell>
        <mxCell id="1ZEqIL1IGXKbyDCEupFX-26" value="" style="edgeStyle=orthogonalEdgeStyle;rounded=0;orthogonalLoop=1;jettySize=auto;html=1;entryX=0.5;entryY=0;entryDx=0;entryDy=0;strokeColor=#FFFFFF;strokeWidth=5;" parent="1" source="1ZEqIL1IGXKbyDCEupFX-22" target="1ZEqIL1IGXKbyDCEupFX-24" edge="1">
          <mxGeometry relative="1" as="geometry">
            <mxPoint x="-240" y="430" as="targetPoint" />
            <Array as="points">
              <mxPoint x="-240" y="320" />
            </Array>
          </mxGeometry>
        </mxCell>
        <mxCell id="1ZEqIL1IGXKbyDCEupFX-22" value="&lt;font style=&quot;font-size: 20px;&quot;&gt;hydra-migrate&lt;/font&gt;" style="rounded=1;whiteSpace=wrap;html=1;fillColor=#d5e8d4;strokeColor=#82b366;" parent="1" vertex="1">
          <mxGeometry x="-160" y="280" width="160" height="80" as="geometry" />
        </mxCell>
        <mxCell id="1ZEqIL1IGXKbyDCEupFX-48" value="" style="edgeStyle=orthogonalEdgeStyle;rounded=0;orthogonalLoop=1;jettySize=auto;html=1;strokeColor=#FFFFFF;strokeWidth=5;" parent="1" source="1ZEqIL1IGXKbyDCEupFX-24" target="1ZEqIL1IGXKbyDCEupFX-3" edge="1">
          <mxGeometry relative="1" as="geometry" />
        </mxCell>
        <mxCell id="1ZEqIL1IGXKbyDCEupFX-24" value="postgres" style="rounded=1;whiteSpace=wrap;html=1;fillColor=#b1ddf0;strokeColor=#10739e;fontSize=20;" parent="1" vertex="1">
          <mxGeometry x="-320" y="440" width="160" height="80" as="geometry" />
        </mxCell>
        <mxCell id="1ZEqIL1IGXKbyDCEupFX-34" value="" style="edgeStyle=orthogonalEdgeStyle;rounded=0;orthogonalLoop=1;jettySize=auto;html=1;entryX=1;entryY=0.5;entryDx=0;entryDy=0;strokeColor=#FFFFFF;strokeWidth=5;" parent="1" source="1ZEqIL1IGXKbyDCEupFX-30" target="1ZEqIL1IGXKbyDCEupFX-24" edge="1">
          <mxGeometry relative="1" as="geometry">
            <mxPoint x="120" y="480" as="targetPoint" />
          </mxGeometry>
        </mxCell>
        <mxCell id="1ZEqIL1IGXKbyDCEupFX-30" value="&lt;font style=&quot;font-size: 20px;&quot;&gt;bss-init&lt;/font&gt;" style="rounded=1;whiteSpace=wrap;html=1;fillColor=#d5e8d4;strokeColor=#82b366;" parent="1" vertex="1">
          <mxGeometry x="200" y="440" width="160" height="80" as="geometry" />
        </mxCell>
        <mxCell id="1ZEqIL1IGXKbyDCEupFX-37" value="" style="edgeStyle=orthogonalEdgeStyle;rounded=0;orthogonalLoop=1;jettySize=auto;html=1;strokeColor=#FFFFFF;strokeWidth=5;" parent="1" source="1ZEqIL1IGXKbyDCEupFX-31" target="1ZEqIL1IGXKbyDCEupFX-36" edge="1">
          <mxGeometry relative="1" as="geometry" />
        </mxCell>
        <mxCell id="1ZEqIL1IGXKbyDCEupFX-40" value="" style="edgeStyle=orthogonalEdgeStyle;rounded=0;orthogonalLoop=1;jettySize=auto;html=1;strokeColor=#FFFFFF;dashed=1;strokeWidth=5;" parent="1" source="1ZEqIL1IGXKbyDCEupFX-31" target="1ZEqIL1IGXKbyDCEupFX-11" edge="1">
          <mxGeometry relative="1" as="geometry">
            <mxPoint x="520" y="370" as="targetPoint" />
            <Array as="points">
              <mxPoint x="161" y="640" />
              <mxPoint x="161" y="400" />
              <mxPoint x="520" y="400" />
            </Array>
          </mxGeometry>
        </mxCell>
        <mxCell id="1ZEqIL1IGXKbyDCEupFX-50" value="" style="edgeStyle=orthogonalEdgeStyle;rounded=0;orthogonalLoop=1;jettySize=auto;html=1;entryX=0.5;entryY=0;entryDx=0;entryDy=0;strokeColor=#FFFFFF;strokeWidth=5;" parent="1" source="1ZEqIL1IGXKbyDCEupFX-31" target="1ZEqIL1IGXKbyDCEupFX-51" edge="1">
          <mxGeometry relative="1" as="geometry" />
        </mxCell>
        <mxCell id="1ZEqIL1IGXKbyDCEupFX-52" style="edgeStyle=orthogonalEdgeStyle;rounded=0;orthogonalLoop=1;jettySize=auto;html=1;entryX=0.5;entryY=0;entryDx=0;entryDy=0;strokeColor=#FFFFFF;strokeWidth=5;" parent="1" source="1ZEqIL1IGXKbyDCEupFX-31" target="1ZEqIL1IGXKbyDCEupFX-49" edge="1">
          <mxGeometry relative="1" as="geometry" />
        </mxCell>
        <mxCell id="1ZEqIL1IGXKbyDCEupFX-31" value="smd" style="rounded=1;whiteSpace=wrap;html=1;fillColor=#b1ddf0;strokeColor=#10739e;fontSize=20;" parent="1" vertex="1">
          <mxGeometry x="200" y="600" width="160" height="80" as="geometry" />
        </mxCell>
        <mxCell id="1ZEqIL1IGXKbyDCEupFX-39" value="" style="edgeStyle=orthogonalEdgeStyle;rounded=0;orthogonalLoop=1;jettySize=auto;html=1;entryX=0.5;entryY=1;entryDx=0;entryDy=0;strokeColor=#FFFFFF;strokeWidth=5;" parent="1" source="1ZEqIL1IGXKbyDCEupFX-36" target="1ZEqIL1IGXKbyDCEupFX-24" edge="1">
          <mxGeometry relative="1" as="geometry">
            <mxPoint x="-120" y="640" as="targetPoint" />
          </mxGeometry>
        </mxCell>
        <mxCell id="1ZEqIL1IGXKbyDCEupFX-36" value="&lt;font style=&quot;font-size: 20px;&quot;&gt;smd-init&lt;/font&gt;" style="rounded=1;whiteSpace=wrap;html=1;fillColor=#d5e8d4;strokeColor=#82b366;" parent="1" vertex="1">
          <mxGeometry x="-40" y="600" width="160" height="80" as="geometry" />
        </mxCell>
        <mxCell id="1ZEqIL1IGXKbyDCEupFX-45" value="" style="edgeStyle=orthogonalEdgeStyle;rounded=0;orthogonalLoop=1;jettySize=auto;html=1;strokeColor=#FFFFFF;strokeWidth=5;" parent="1" source="1ZEqIL1IGXKbyDCEupFX-42" target="1ZEqIL1IGXKbyDCEupFX-44" edge="1">
          <mxGeometry relative="1" as="geometry" />
        </mxCell>
        <mxCell id="1ZEqIL1IGXKbyDCEupFX-42" value="acme-register" style="rounded=1;whiteSpace=wrap;html=1;fillColor=#d5e8d4;strokeColor=#82b366;fontSize=20;" parent="1" vertex="1">
          <mxGeometry x="200" y="920" width="160" height="80" as="geometry" />
        </mxCell>
        <mxCell id="1ZEqIL1IGXKbyDCEupFX-47" value="" style="edgeStyle=orthogonalEdgeStyle;rounded=0;orthogonalLoop=1;jettySize=auto;html=1;entryX=0.5;entryY=1;entryDx=0;entryDy=0;strokeColor=#FFFFFF;strokeWidth=5;" parent="1" source="1ZEqIL1IGXKbyDCEupFX-44" target="1ZEqIL1IGXKbyDCEupFX-3" edge="1">
          <mxGeometry relative="1" as="geometry">
            <mxPoint x="-120" y="800" as="targetPoint" />
          </mxGeometry>
        </mxCell>
        <mxCell id="1ZEqIL1IGXKbyDCEupFX-44" value="step-ca" style="rounded=1;whiteSpace=wrap;html=1;fillColor=#b1ddf0;strokeColor=#10739e;fontSize=20;" parent="1" vertex="1">
          <mxGeometry x="-40" y="920" width="160" height="80" as="geometry" />
        </mxCell>
        <mxCell id="1ZEqIL1IGXKbyDCEupFX-49" value="tpm-manager" style="rounded=1;whiteSpace=wrap;html=1;fillColor=#b1ddf0;strokeColor=#10739e;fontSize=20;" parent="1" vertex="1">
          <mxGeometry x="80" y="760" width="160" height="80" as="geometry" />
        </mxCell>
        <mxCell id="1ZEqIL1IGXKbyDCEupFX-51" value="cloud-init-server" style="rounded=1;whiteSpace=wrap;html=1;fillColor=#b1ddf0;strokeColor=#10739e;fontSize=20;" parent="1" vertex="1">
          <mxGeometry x="320" y="760" width="160" height="80" as="geometry" />
        </mxCell>
        <mxCell id="1ZEqIL1IGXKbyDCEupFX-53" value="&lt;font style=&quot;font-size: 20px;&quot;&gt;oneshot&lt;/font&gt;" style="rounded=1;whiteSpace=wrap;html=1;fillColor=#d5e8d4;strokeColor=#82b366;" parent="1" vertex="1">
          <mxGeometry x="790" y="620" width="120" height="60" as="geometry" />
        </mxCell>
        <mxCell id="1ZEqIL1IGXKbyDCEupFX-54" value="daemon" style="rounded=1;whiteSpace=wrap;html=1;fillColor=#b1ddf0;strokeColor=#10739e;fontSize=20;" parent="1" vertex="1">
          <mxGeometry x="790" y="700" width="120" height="60" as="geometry" />
        </mxCell>
        <mxCell id="2owSJNtIzbq3pT11VpYy-1" value="" style="edgeStyle=orthogonalEdgeStyle;rounded=0;orthogonalLoop=1;jettySize=auto;html=1;strokeColor=#FFFFFF;strokeWidth=5;exitX=0;exitY=0.5;exitDx=0;exitDy=0;entryX=0.469;entryY=0.011;entryDx=0;entryDy=0;entryPerimeter=0;" parent="1" source="1ZEqIL1IGXKbyDCEupFX-6" target="1ZEqIL1IGXKbyDCEupFX-9" edge="1">
          <mxGeometry relative="1" as="geometry">
            <mxPoint x="800" y="320" as="targetPoint" />
            <mxPoint x="800" y="400" as="sourcePoint" />
          </mxGeometry>
        </mxCell>
        <mxCell id="SwHw0xs3v0KvF5lwuCIV-3" style="edgeStyle=orthogonalEdgeStyle;rounded=0;orthogonalLoop=1;jettySize=auto;html=1;exitX=0;exitY=0.5;exitDx=0;exitDy=0;entryX=1;entryY=0.5;entryDx=0;entryDy=0;strokeWidth=5;strokeColor=#FFFFFF;" parent="1" source="SwHw0xs3v0KvF5lwuCIV-1" target="1ZEqIL1IGXKbyDCEupFX-31" edge="1">
          <mxGeometry relative="1" as="geometry" />
        </mxCell>
        <mxCell id="SwHw0xs3v0KvF5lwuCIV-1" value="configurator" style="rounded=1;whiteSpace=wrap;html=1;fillColor=#b1ddf0;strokeColor=#10739e;fontSize=20;" parent="1" vertex="1">
          <mxGeometry x="440" y="600" width="160" height="80" as="geometry" />
        </mxCell>
      </root>
    </mxGraphModel>
  </diagram>
  <diagram id="j2nN345O6jLC3lwh0vOy" name="light">
    <mxGraphModel dx="954" dy="727" grid="1" gridSize="10" guides="1" tooltips="1" connect="1" arrows="1" fold="1" page="1" pageScale="1" pageWidth="850" pageHeight="1100" math="0" shadow="0">
      <root>
        <mxCell id="0" />
        <mxCell id="1" parent="0" />
        <mxCell id="YTJLhdYPwANYrp4gIWIp-1" value="" style="rounded=0;whiteSpace=wrap;html=1;fillColor=#FFFFFF;perimeterSpacing=5;strokeWidth=5;strokeColor=default;" vertex="1" parent="1">
          <mxGeometry x="350" y="460" width="1570" height="740" as="geometry" />
        </mxCell>
        <mxCell id="YTJLhdYPwANYrp4gIWIp-2" value="" style="rounded=0;whiteSpace=wrap;html=1;strokeColor=default;fillColor=#FFFFFF;perimeterSpacing=5;strokeWidth=5;" vertex="1" parent="1">
          <mxGeometry x="1650" y="790" width="160" height="180" as="geometry" />
        </mxCell>
        <mxCell id="YTJLhdYPwANYrp4gIWIp-3" value="" style="edgeStyle=orthogonalEdgeStyle;rounded=0;orthogonalLoop=1;jettySize=auto;html=1;strokeColor=default;strokeWidth=5;" edge="1" parent="1" source="YTJLhdYPwANYrp4gIWIp-4" target="YTJLhdYPwANYrp4gIWIp-6">
          <mxGeometry relative="1" as="geometry">
            <mxPoint x="1810" y="540" as="targetPoint" />
          </mxGeometry>
        </mxCell>
        <mxCell id="YTJLhdYPwANYrp4gIWIp-4" value="&lt;font style=&quot;font-size: 20px;&quot;&gt;ochami-init&lt;/font&gt;" style="rounded=1;whiteSpace=wrap;html=1;fillColor=#d5e8d4;strokeColor=default;" vertex="1" parent="1">
          <mxGeometry x="1750" y="630" width="160" height="80" as="geometry" />
        </mxCell>
        <mxCell id="YTJLhdYPwANYrp4gIWIp-5" value="ochami-jenga" style="rounded=1;whiteSpace=wrap;html=1;fillColor=#d5e8d4;strokeColor=default;fontSize=20;" vertex="1" parent="1">
          <mxGeometry x="360" y="630" width="160" height="80" as="geometry" />
        </mxCell>
        <mxCell id="YTJLhdYPwANYrp4gIWIp-6" value="&lt;font style=&quot;font-size: 20px;&quot;&gt;CoreSMD&lt;/font&gt;" style="rounded=1;whiteSpace=wrap;html=1;fillColor=#b1ddf0;strokeColor=default;" vertex="1" parent="1">
          <mxGeometry x="1750" y="470" width="160" height="80" as="geometry" />
        </mxCell>
        <mxCell id="YTJLhdYPwANYrp4gIWIp-7" value="" style="edgeStyle=orthogonalEdgeStyle;rounded=0;orthogonalLoop=1;jettySize=auto;html=1;entryX=1;entryY=0.5;entryDx=0;entryDy=0;strokeColor=default;strokeWidth=5;" edge="1" parent="1" source="YTJLhdYPwANYrp4gIWIp-11" target="YTJLhdYPwANYrp4gIWIp-19">
          <mxGeometry relative="1" as="geometry" />
        </mxCell>
        <mxCell id="YTJLhdYPwANYrp4gIWIp-8" value="" style="edgeStyle=orthogonalEdgeStyle;rounded=0;orthogonalLoop=1;jettySize=auto;html=1;strokeColor=default;strokeWidth=5;" edge="1" parent="1" source="YTJLhdYPwANYrp4gIWIp-11" target="YTJLhdYPwANYrp4gIWIp-17">
          <mxGeometry relative="1" as="geometry" />
        </mxCell>
        <mxCell id="YTJLhdYPwANYrp4gIWIp-9" value="" style="edgeStyle=orthogonalEdgeStyle;rounded=0;orthogonalLoop=1;jettySize=auto;html=1;entryX=1;entryY=0.5;entryDx=0;entryDy=0;strokeColor=default;strokeWidth=5;" edge="1" parent="1" source="YTJLhdYPwANYrp4gIWIp-11" target="YTJLhdYPwANYrp4gIWIp-13">
          <mxGeometry relative="1" as="geometry" />
        </mxCell>
        <mxCell id="YTJLhdYPwANYrp4gIWIp-10" style="edgeStyle=orthogonalEdgeStyle;rounded=0;orthogonalLoop=1;jettySize=auto;html=1;exitX=0.5;exitY=1;exitDx=0;exitDy=0;entryX=1;entryY=0.5;entryDx=0;entryDy=0;strokeColor=default;strokeWidth=5;" edge="1" parent="1" source="YTJLhdYPwANYrp4gIWIp-11" target="YTJLhdYPwANYrp4gIWIp-47">
          <mxGeometry relative="1" as="geometry" />
        </mxCell>
        <mxCell id="YTJLhdYPwANYrp4gIWIp-11" value="&lt;font style=&quot;font-size: 20px;&quot;&gt;haproxy&lt;/font&gt;" style="rounded=1;whiteSpace=wrap;html=1;fillColor=#b1ddf0;strokeColor=default;" vertex="1" parent="1">
          <mxGeometry x="1550" y="630" width="160" height="80" as="geometry" />
        </mxCell>
        <mxCell id="YTJLhdYPwANYrp4gIWIp-12" value="" style="edgeStyle=orthogonalEdgeStyle;rounded=0;orthogonalLoop=1;jettySize=auto;html=1;strokeColor=default;strokeWidth=5;" edge="1" parent="1" source="YTJLhdYPwANYrp4gIWIp-13" target="YTJLhdYPwANYrp4gIWIp-21">
          <mxGeometry relative="1" as="geometry" />
        </mxCell>
        <mxCell id="YTJLhdYPwANYrp4gIWIp-13" value="opaal" style="rounded=1;whiteSpace=wrap;html=1;fillColor=#b1ddf0;strokeColor=default;fontSize=20;" vertex="1" parent="1">
          <mxGeometry x="1320" y="470" width="160" height="80" as="geometry" />
        </mxCell>
        <mxCell id="YTJLhdYPwANYrp4gIWIp-14" value="" style="edgeStyle=orthogonalEdgeStyle;rounded=0;orthogonalLoop=1;jettySize=auto;html=1;entryX=1;entryY=0.5;entryDx=0;entryDy=0;strokeColor=default;strokeWidth=5;" edge="1" parent="1" source="YTJLhdYPwANYrp4gIWIp-17" target="YTJLhdYPwANYrp4gIWIp-34">
          <mxGeometry relative="1" as="geometry" />
        </mxCell>
        <mxCell id="YTJLhdYPwANYrp4gIWIp-15" style="edgeStyle=orthogonalEdgeStyle;rounded=0;orthogonalLoop=1;jettySize=auto;html=1;entryX=1;entryY=0.5;entryDx=0;entryDy=0;strokeColor=default;strokeWidth=5;" edge="1" parent="1" source="YTJLhdYPwANYrp4gIWIp-17" target="YTJLhdYPwANYrp4gIWIp-29">
          <mxGeometry relative="1" as="geometry">
            <mxPoint x="1280" y="660" as="targetPoint" />
          </mxGeometry>
        </mxCell>
        <mxCell id="YTJLhdYPwANYrp4gIWIp-16" value="" style="edgeStyle=orthogonalEdgeStyle;rounded=0;orthogonalLoop=1;jettySize=auto;html=1;dashed=1;strokeColor=default;strokeWidth=5;" edge="1" parent="1" source="YTJLhdYPwANYrp4gIWIp-17" target="YTJLhdYPwANYrp4gIWIp-13">
          <mxGeometry relative="1" as="geometry" />
        </mxCell>
        <mxCell id="YTJLhdYPwANYrp4gIWIp-17" value="bss" style="rounded=1;whiteSpace=wrap;html=1;fillColor=#b1ddf0;strokeColor=default;fontSize=20;" vertex="1" parent="1">
          <mxGeometry x="1320" y="630" width="160" height="80" as="geometry" />
        </mxCell>
        <mxCell id="YTJLhdYPwANYrp4gIWIp-18" value="" style="edgeStyle=orthogonalEdgeStyle;rounded=0;orthogonalLoop=1;jettySize=auto;html=1;strokeColor=default;strokeWidth=5;" edge="1" parent="1" source="YTJLhdYPwANYrp4gIWIp-19" target="YTJLhdYPwANYrp4gIWIp-38">
          <mxGeometry relative="1" as="geometry" />
        </mxCell>
        <mxCell id="YTJLhdYPwANYrp4gIWIp-19" value="acme-deploy" style="rounded=1;whiteSpace=wrap;html=1;fillColor=#d5e8d4;strokeColor=default;fontSize=20;" vertex="1" parent="1">
          <mxGeometry x="1320" y="1110" width="160" height="80" as="geometry" />
        </mxCell>
        <mxCell id="YTJLhdYPwANYrp4gIWIp-20" value="" style="edgeStyle=orthogonalEdgeStyle;rounded=0;orthogonalLoop=1;jettySize=auto;html=1;strokeColor=default;strokeWidth=5;" edge="1" parent="1" source="YTJLhdYPwANYrp4gIWIp-21" target="YTJLhdYPwANYrp4gIWIp-23">
          <mxGeometry relative="1" as="geometry" />
        </mxCell>
        <mxCell id="YTJLhdYPwANYrp4gIWIp-21" value="opaal-idp" style="rounded=1;whiteSpace=wrap;html=1;fillColor=#b1ddf0;strokeColor=default;fontSize=20;" vertex="1" parent="1">
          <mxGeometry x="1120" y="470" width="160" height="80" as="geometry" />
        </mxCell>
        <mxCell id="YTJLhdYPwANYrp4gIWIp-22" value="" style="edgeStyle=orthogonalEdgeStyle;rounded=0;orthogonalLoop=1;jettySize=auto;html=1;strokeColor=default;strokeWidth=5;" edge="1" parent="1" source="YTJLhdYPwANYrp4gIWIp-23" target="YTJLhdYPwANYrp4gIWIp-25">
          <mxGeometry relative="1" as="geometry" />
        </mxCell>
        <mxCell id="YTJLhdYPwANYrp4gIWIp-23" value="hydra" style="rounded=1;whiteSpace=wrap;html=1;fillColor=#b1ddf0;strokeColor=default;fontSize=20;" vertex="1" parent="1">
          <mxGeometry x="920" y="470" width="160" height="80" as="geometry" />
        </mxCell>
        <mxCell id="YTJLhdYPwANYrp4gIWIp-24" value="" style="edgeStyle=orthogonalEdgeStyle;rounded=0;orthogonalLoop=1;jettySize=auto;html=1;entryX=0.5;entryY=0;entryDx=0;entryDy=0;strokeColor=default;strokeWidth=5;" edge="1" parent="1" source="YTJLhdYPwANYrp4gIWIp-25" target="YTJLhdYPwANYrp4gIWIp-27">
          <mxGeometry relative="1" as="geometry">
            <mxPoint x="640" y="620" as="targetPoint" />
            <Array as="points">
              <mxPoint x="640" y="510" />
            </Array>
          </mxGeometry>
        </mxCell>
        <mxCell id="YTJLhdYPwANYrp4gIWIp-25" value="&lt;font style=&quot;font-size: 20px;&quot;&gt;hydra-migrate&lt;/font&gt;" style="rounded=1;whiteSpace=wrap;html=1;fillColor=#d5e8d4;strokeColor=default;" vertex="1" parent="1">
          <mxGeometry x="720" y="470" width="160" height="80" as="geometry" />
        </mxCell>
        <mxCell id="YTJLhdYPwANYrp4gIWIp-26" value="" style="edgeStyle=orthogonalEdgeStyle;rounded=0;orthogonalLoop=1;jettySize=auto;html=1;strokeColor=default;strokeWidth=5;" edge="1" parent="1" source="YTJLhdYPwANYrp4gIWIp-27" target="YTJLhdYPwANYrp4gIWIp-5">
          <mxGeometry relative="1" as="geometry" />
        </mxCell>
        <mxCell id="YTJLhdYPwANYrp4gIWIp-27" value="postgres" style="rounded=1;whiteSpace=wrap;html=1;fillColor=#b1ddf0;strokeColor=default;fontSize=20;" vertex="1" parent="1">
          <mxGeometry x="560" y="630" width="160" height="80" as="geometry" />
        </mxCell>
        <mxCell id="YTJLhdYPwANYrp4gIWIp-28" value="" style="edgeStyle=orthogonalEdgeStyle;rounded=0;orthogonalLoop=1;jettySize=auto;html=1;entryX=1;entryY=0.5;entryDx=0;entryDy=0;strokeColor=default;strokeWidth=5;" edge="1" parent="1" source="YTJLhdYPwANYrp4gIWIp-29" target="YTJLhdYPwANYrp4gIWIp-27">
          <mxGeometry relative="1" as="geometry">
            <mxPoint x="1000" y="670" as="targetPoint" />
          </mxGeometry>
        </mxCell>
        <mxCell id="YTJLhdYPwANYrp4gIWIp-29" value="&lt;font style=&quot;font-size: 20px;&quot;&gt;bss-init&lt;/font&gt;" style="rounded=1;whiteSpace=wrap;html=1;fillColor=#d5e8d4;strokeColor=default;" vertex="1" parent="1">
          <mxGeometry x="1080" y="630" width="160" height="80" as="geometry" />
        </mxCell>
        <mxCell id="YTJLhdYPwANYrp4gIWIp-30" value="" style="edgeStyle=orthogonalEdgeStyle;rounded=0;orthogonalLoop=1;jettySize=auto;html=1;strokeColor=default;strokeWidth=5;" edge="1" parent="1" source="YTJLhdYPwANYrp4gIWIp-34" target="YTJLhdYPwANYrp4gIWIp-36">
          <mxGeometry relative="1" as="geometry" />
        </mxCell>
        <mxCell id="YTJLhdYPwANYrp4gIWIp-31" value="" style="edgeStyle=orthogonalEdgeStyle;rounded=0;orthogonalLoop=1;jettySize=auto;html=1;strokeColor=default;dashed=1;strokeWidth=5;" edge="1" parent="1" source="YTJLhdYPwANYrp4gIWIp-34" target="YTJLhdYPwANYrp4gIWIp-13">
          <mxGeometry relative="1" as="geometry">
            <mxPoint x="1400" y="560" as="targetPoint" />
            <Array as="points">
              <mxPoint x="1041" y="830" />
              <mxPoint x="1041" y="590" />
              <mxPoint x="1400" y="590" />
            </Array>
          </mxGeometry>
        </mxCell>
        <mxCell id="YTJLhdYPwANYrp4gIWIp-32" value="" style="edgeStyle=orthogonalEdgeStyle;rounded=0;orthogonalLoop=1;jettySize=auto;html=1;entryX=0.5;entryY=0;entryDx=0;entryDy=0;strokeColor=default;strokeWidth=5;" edge="1" parent="1" source="YTJLhdYPwANYrp4gIWIp-34" target="YTJLhdYPwANYrp4gIWIp-42">
          <mxGeometry relative="1" as="geometry" />
        </mxCell>
        <mxCell id="YTJLhdYPwANYrp4gIWIp-33" style="edgeStyle=orthogonalEdgeStyle;rounded=0;orthogonalLoop=1;jettySize=auto;html=1;entryX=0.5;entryY=0;entryDx=0;entryDy=0;strokeColor=default;strokeWidth=5;" edge="1" parent="1" source="YTJLhdYPwANYrp4gIWIp-34" target="YTJLhdYPwANYrp4gIWIp-41">
          <mxGeometry relative="1" as="geometry" />
        </mxCell>
        <mxCell id="YTJLhdYPwANYrp4gIWIp-34" value="smd" style="rounded=1;whiteSpace=wrap;html=1;fillColor=#b1ddf0;strokeColor=default;fontSize=20;" vertex="1" parent="1">
          <mxGeometry x="1080" y="790" width="160" height="80" as="geometry" />
        </mxCell>
        <mxCell id="YTJLhdYPwANYrp4gIWIp-35" value="" style="edgeStyle=orthogonalEdgeStyle;rounded=0;orthogonalLoop=1;jettySize=auto;html=1;entryX=0.5;entryY=1;entryDx=0;entryDy=0;strokeColor=default;strokeWidth=5;" edge="1" parent="1" source="YTJLhdYPwANYrp4gIWIp-36" target="YTJLhdYPwANYrp4gIWIp-27">
          <mxGeometry relative="1" as="geometry">
            <mxPoint x="760" y="830" as="targetPoint" />
          </mxGeometry>
        </mxCell>
        <mxCell id="YTJLhdYPwANYrp4gIWIp-36" value="&lt;font style=&quot;font-size: 20px;&quot;&gt;smd-init&lt;/font&gt;" style="rounded=1;whiteSpace=wrap;html=1;fillColor=#d5e8d4;strokeColor=default;" vertex="1" parent="1">
          <mxGeometry x="840" y="790" width="160" height="80" as="geometry" />
        </mxCell>
        <mxCell id="YTJLhdYPwANYrp4gIWIp-37" value="" style="edgeStyle=orthogonalEdgeStyle;rounded=0;orthogonalLoop=1;jettySize=auto;html=1;strokeColor=default;strokeWidth=5;" edge="1" parent="1" source="YTJLhdYPwANYrp4gIWIp-38" target="YTJLhdYPwANYrp4gIWIp-40">
          <mxGeometry relative="1" as="geometry" />
        </mxCell>
        <mxCell id="YTJLhdYPwANYrp4gIWIp-38" value="acme-register" style="rounded=1;whiteSpace=wrap;html=1;fillColor=#d5e8d4;strokeColor=default;fontSize=20;" vertex="1" parent="1">
          <mxGeometry x="1080" y="1110" width="160" height="80" as="geometry" />
        </mxCell>
        <mxCell id="YTJLhdYPwANYrp4gIWIp-39" value="" style="edgeStyle=orthogonalEdgeStyle;rounded=0;orthogonalLoop=1;jettySize=auto;html=1;entryX=0.5;entryY=1;entryDx=0;entryDy=0;strokeColor=default;strokeWidth=5;" edge="1" parent="1" source="YTJLhdYPwANYrp4gIWIp-40" target="YTJLhdYPwANYrp4gIWIp-5">
          <mxGeometry relative="1" as="geometry">
            <mxPoint x="760" y="990" as="targetPoint" />
          </mxGeometry>
        </mxCell>
        <mxCell id="YTJLhdYPwANYrp4gIWIp-40" value="step-ca" style="rounded=1;whiteSpace=wrap;html=1;fillColor=#b1ddf0;strokeColor=default;fontSize=20;" vertex="1" parent="1">
          <mxGeometry x="840" y="1110" width="160" height="80" as="geometry" />
        </mxCell>
        <mxCell id="YTJLhdYPwANYrp4gIWIp-41" value="tpm-manager" style="rounded=1;whiteSpace=wrap;html=1;fillColor=#b1ddf0;strokeColor=default;fontSize=20;" vertex="1" parent="1">
          <mxGeometry x="960" y="950" width="160" height="80" as="geometry" />
        </mxCell>
        <mxCell id="YTJLhdYPwANYrp4gIWIp-42" value="cloud-init-server" style="rounded=1;whiteSpace=wrap;html=1;fillColor=#b1ddf0;strokeColor=default;fontSize=20;" vertex="1" parent="1">
          <mxGeometry x="1200" y="950" width="160" height="80" as="geometry" />
        </mxCell>
        <mxCell id="YTJLhdYPwANYrp4gIWIp-43" value="&lt;font style=&quot;font-size: 20px;&quot;&gt;oneshot&lt;/font&gt;" style="rounded=1;whiteSpace=wrap;html=1;fillColor=#d5e8d4;strokeColor=default;" vertex="1" parent="1">
          <mxGeometry x="1670" y="810" width="120" height="60" as="geometry" />
        </mxCell>
        <mxCell id="YTJLhdYPwANYrp4gIWIp-44" value="daemon" style="rounded=1;whiteSpace=wrap;html=1;fillColor=#b1ddf0;strokeColor=default;fontSize=20;" vertex="1" parent="1">
          <mxGeometry x="1670" y="890" width="120" height="60" as="geometry" />
        </mxCell>
        <mxCell id="YTJLhdYPwANYrp4gIWIp-45" value="" style="edgeStyle=orthogonalEdgeStyle;rounded=0;orthogonalLoop=1;jettySize=auto;html=1;strokeColor=default;strokeWidth=5;exitX=0;exitY=0.5;exitDx=0;exitDy=0;entryX=0.469;entryY=0.011;entryDx=0;entryDy=0;entryPerimeter=0;" edge="1" parent="1" source="YTJLhdYPwANYrp4gIWIp-6" target="YTJLhdYPwANYrp4gIWIp-11">
          <mxGeometry relative="1" as="geometry">
            <mxPoint x="1680" y="510" as="targetPoint" />
            <mxPoint x="1680" y="590" as="sourcePoint" />
          </mxGeometry>
        </mxCell>
        <mxCell id="YTJLhdYPwANYrp4gIWIp-46" style="edgeStyle=orthogonalEdgeStyle;rounded=0;orthogonalLoop=1;jettySize=auto;html=1;exitX=0;exitY=0.5;exitDx=0;exitDy=0;entryX=1;entryY=0.5;entryDx=0;entryDy=0;strokeWidth=5;strokeColor=default;" edge="1" parent="1" source="YTJLhdYPwANYrp4gIWIp-47" target="YTJLhdYPwANYrp4gIWIp-34">
          <mxGeometry relative="1" as="geometry" />
        </mxCell>
        <mxCell id="YTJLhdYPwANYrp4gIWIp-47" value="configurator" style="rounded=1;whiteSpace=wrap;html=1;fillColor=#b1ddf0;strokeColor=default;fontSize=20;" vertex="1" parent="1">
          <mxGeometry x="1320" y="790" width="160" height="80" as="geometry" />
        </mxCell>
      </root>
    </mxGraphModel>
  </diagram>
</mxfile>
